# xmcd
#
# Track frame offsets:
#	150
#	28735
#	51535
#	67435
#	87160
#	116410
#	141760
#	160885
#	176035
#	188712
#	201310
#	226587
#	240910
#	265212
#
# Disc length: 3732 seconds
#
# Revision: 2
# Processed by: cddbd v1.5.1PL0 Copyright (c) Steve Scherf et al.
# Submitted via: EasyCDDAExtractor 7.7.1.2
#
DISCID=c50e920e
DTITLE=Buddy Guy - My Time After Awhile
DYEAR=1992
DGENRE=Blues
TTITLE0=A Man And The Blues
TTITLE1=I'm Ready
TTITLE2=The Things I Used To Do
TTITLE3=Stormy Monday Blues
TTITLE4=You Give Me Fever
TTITLE5=Sweet Little Angel
TTITLE6=My Time After Awhile
TTITLE7=Five Long Years
TTITLE8=It Hurts Me Too (When Things Go Wrong)
TTITLE9=24 Hours Of The Day
TTITLE10=One Room Country Shack
TTITLE11=Checking On My Baby
TTITLE12=Hello San Francisco
TTITLE13=So Sad This Morning
EXTD=
EXTT0=
EXTT1=
EXTT2=
EXTT3=
EXTT4=
EXTT5=
EXTT6=
EXTT7=
EXTT8=
EXTT9=
EXTT10=
EXTT11=
EXTT12=
EXTT13=
PLAYORDER=
